<svg class="diagram-root" style="background: #f5f6f6" xmlns="http://www.w3.org/2000/svg" xmlns:xlink="http://www.w3.org/1999/xlink"><style>.diagram-root { font-family: "Helvetica Neue", sans-serif; font-size: 12px; } .t { overflow: visible; } .t-bg { y: 40; fill: #fff;   } .th { fill: #005aa0;   } .tht { fill: #fff; font-size: 14px;  } .tf { fill: #323c46; overflow: visible; } .tf.pk { fill: #005aa0; font-weight: bold; } .tf.fk { font-weight: bold; } .ty { fill: #adb1b5; font-weight: normal; text-anchor: end; } .r { fill: transparent; stroke: #c3c3c3; stroke-width: 1; } .l { stroke: 1; } .i { fill: #c2c7ce; stroke: #c2c7ce; } .i.ix { fill: #afb3b6; stroke: #000; } .fa { fill: transparent; overflow: visible; } .fa .bg.hover { fill: #f7f7f7; } .c { cy: 12; r: 4; stroke: #d2d2dc; fill: #d2d2dc; } .hr { fill: transparent; stroke: #323c46; stroke-opacity: 0.035; stroke-width: 13; } .dc { stroke: #fa5a3c; fill: #fa5a3c; } .x { stroke: white; stroke-width: 1; } .hl .th { fill: #1b9bff; } .hl .tht {  } .fhl .bg { fill: #e7f4ff; } .fhls .bg {  } .r.hl { stroke: #1b9bff; } .dim { opacity: 0.25; }</style><g class="drawing-wrapper" transform="translate(-73, 8) scale(1,1)"><g class="rs"><path d="M 96 286 m -1, 0 a 1,1 0 1,0 2,0 a 1,1 0 1,0 -2,0 M 96 286 m -0.5, 0 a 0.5,0.5 0 1,0 1,0 a 0.5,0.5 0 1,0 -1,0  M96 286 L96 286 84 286 M 96 292 m -1, 0 a 1,1 0 1,0 2,0 a 1,1 0 1,0 -2,0 M 96 292 m -0.5, 0 a 0.5,0.5 0 1,0 1,0 a 0.5,0.5 0 1,0 -1,0  M96 292 L96 292 89 286 96 280 M 96 280 m -1, 0 a 1,1 0 1,0 2,0 a 1,1 0 1,0 -2,0 M 96 280 m -0.5, 0 a 0.5,0.5 0 1,0 1,0 a 0.5,0.5 0 1,0 -1,0  M84 286 C 34 286, 34 79, 84 79 M 96 79 m -1, 0 a 1,1 0 1,0 2,0 a 1,1 0 1,0 -2,0 M 96 79 m -0.5, 0 a 0.5,0.5 0 1,0 1,0 a 0.5,0.5 0 1,0 -1,0  M96 79 L96 79 84 79 M90 85 L90 85 90 73" id="h2606701400" class="r"></path><path d="M 557 261 m -1, 0 a 1,1 0 1,0 2,0 a 1,1 0 1,0 -2,0 M 557 261 m -0.5, 0 a 0.5,0.5 0 1,0 1,0 a 0.5,0.5 0 1,0 -1,0  M557 261 L557 261 545 261 M 557 267 m -1, 0 a 1,1 0 1,0 2,0 a 1,1 0 1,0 -2,0 M 557 267 m -0.5, 0 a 0.5,0.5 0 1,0 1,0 a 0.5,0.5 0 1,0 -1,0  M557 267 L557 267 550 261 557 255 M 557 255 m -1, 0 a 1,1 0 1,0 2,0 a 1,1 0 1,0 -2,0 M 557 255 m -0.5, 0 a 0.5,0.5 0 1,0 1,0 a 0.5,0.5 0 1,0 -1,0  M545 261 Q 477.7 261, 410.4 170 T 275.8 79 M 263.8 79 m -1, 0 a 1,1 0 1,0 2,0 a 1,1 0 1,0 -2,0 M 263.8 79 m -0.5, 0 a 0.5,0.5 0 1,0 1,0 a 0.5,0.5 0 1,0 -1,0  M263.8 79 L263.8 79 275.8 79 M269.8 85 L269.8 85 269.8 73" id="h2273513138" class="r"></path><path d="M 557 286 m -1, 0 a 1,1 0 1,0 2,0 a 1,1 0 1,0 -2,0 M 557 286 m -0.5, 0 a 0.5,0.5 0 1,0 1,0 a 0.5,0.5 0 1,0 -1,0  M557 286 L557 286 545 286 M 557 292 m -1, 0 a 1,1 0 1,0 2,0 a 1,1 0 1,0 -2,0 M 557 292 m -0.5, 0 a 0.5,0.5 0 1,0 1,0 a 0.5,0.5 0 1,0 -1,0  M557 292 L557 292 550 286 557 280 M 557 280 m -1, 0 a 1,1 0 1,0 2,0 a 1,1 0 1,0 -2,0 M 557 280 m -0.5, 0 a 0.5,0.5 0 1,0 1,0 a 0.5,0.5 0 1,0 -1,0  M545 286 Q 479.65 286, 414.29 273.5 T 283.58 261 M 271.58 261 m -1, 0 a 1,1 0 1,0 2,0 a 1,1 0 1,0 -2,0 M 271.58 261 m -0.5, 0 a 0.5,0.5 0 1,0 1,0 a 0.5,0.5 0 1,0 -1,0  M271.58 261 L271.58 261 283.58 261 M277.58 267 L277.58 267 277.58 255" id="h4090789912" class="r"></path><path d="M 280.37 438 m -1, 0 a 1,1 0 1,0 2,0 a 1,1 0 1,0 -2,0 M 280.37 438 m -0.5, 0 a 0.5,0.5 0 1,0 1,0 a 0.5,0.5 0 1,0 -1,0  M280.37 438 L280.37 438 292.37 438 M286.37 444 L286.37 444 286.37 432 M292.37 438 Q 355.53 438, 418.69 337 T 545 236 M 557 236 m -1, 0 a 1,1 0 1,0 2,0 a 1,1 0 1,0 -2,0 M 557 236 m -0.5, 0 a 0.5,0.5 0 1,0 1,0 a 0.5,0.5 0 1,0 -1,0  M557 236 L557 236 545 236 M551 242 L551 242 551 230" id="h472364565" class="r"></path></g><g class="hrs"></g><g class="ts"><svg width="175.58" height="150" x="96" y="204" id="h2494299681" class="t"><rect height="40" width="175.58" class="th"></rect><text x="13" y="25" class="tht">Trainers</text><rect height="110" width="175.58" class="t-bg"></rect><text x="13" y="61" class="tf pk">Trainer_ID<tspan x="162.58" class="ty">INTEGER</tspan></text><path d="M7,14A2,2 0 0,1 5,12A2,2 0 0,1 7,10A2,2 0 0,1 9,12A2,2 0 0,1 7,14M12.65,10C11.83,7.67 9.61,6 7, 6A6, 6 0 0, 0 1, 12A6, 6 0 0, 0 7, 18C9.61, 18 11.83, 16.33 12.65, 14H17V18H21V14H23V10H12.65Z" class="i pk" transform="translate(89.24210937500001, 48) scale(0.65)"></path><text x="13" y="86" class="tf fk">Gym_ID<tspan x="162.58" class="ty">INTEGER</tspan></text><text x="13" y="111" class="tf">First_Name<tspan x="162.58" class="ty">VARCHAR</tspan></text><text x="13" y="136" class="tf">Last_Name<tspan x="162.58" class="ty">VARCHAR</tspan></text></svg><svg width="182.02" height="225" x="557" y="179" id="h4229917658" class="t"><rect height="40" width="182.02" class="th"></rect><text x="13" y="25" class="tht">Members</text><rect height="185" width="182.02" class="t-bg"></rect><text x="13" y="61" class="tf pk">Member_ID<tspan x="169.02" class="ty">INTEGER</tspan></text><path d="M7,14A2,2 0 0,1 5,12A2,2 0 0,1 7,10A2,2 0 0,1 9,12A2,2 0 0,1 7,14M12.65,10C11.83,7.67 9.61,6 7, 6A6, 6 0 0, 0 1, 12A6, 6 0 0, 0 7, 18C9.61, 18 11.83, 16.33 12.65, 14H17V18H21V14H23V10H12.65Z" class="i pk" transform="translate(95.68210937500001, 48) scale(0.65)"></path><text x="13" y="86" class="tf fk">Gym_ID<tspan x="169.02" class="ty">INTEGER</tspan></text><text x="13" y="111" class="tf fk">Trainer_ID<tspan x="169.02" class="ty">INTEGER</tspan></text><text x="13" y="136" class="tf">First_Name<tspan x="169.02" class="ty">VARCHAR</tspan></text><text x="13" y="161" class="tf">Last_Name<tspan x="169.02" class="ty">VARCHAR</tspan></text><text x="13" y="186" class="tf">Address<tspan x="169.02" class="ty">VARCHAR</tspan></text><text x="13" y="211" class="tf">CITY<tspan x="169.02" class="ty">VARCHAR</tspan></text></svg><svg width="167.8" height="175" x="96" y="22" id="h2227775538" class="t"><rect height="40" width="167.8" class="th"></rect><text x="13" y="25" class="tht">Gym</text><rect height="135" width="167.8" class="t-bg"></rect><text x="13" y="61" class="tf pk">Gym_ID<tspan x="154.8" class="ty">INTEGER</tspan></text><path d="M7,14A2,2 0 0,1 5,12A2,2 0 0,1 7,10A2,2 0 0,1 9,12A2,2 0 0,1 7,14M12.65,10C11.83,7.67 9.61,6 7, 6A6, 6 0 0, 0 1, 12A6, 6 0 0, 0 7, 18C9.61, 18 11.83, 16.33 12.65, 14H17V18H21V14H23V10H12.65Z" class="i pk" transform="translate(81.46210937500001, 48) scale(0.65)"></path><text x="13" y="86" class="tf">Gym_Name<tspan x="154.8" class="ty">VARCHAR</tspan></text><text x="13" y="111" class="tf">Address<tspan x="154.8" class="ty">VARCHAR</tspan></text><text x="13" y="136" class="tf">City<tspan x="154.8" class="ty">VARCHAR</tspan></text><text x="13" y="161" class="tf">Zipcode<tspan x="154.8" class="ty">VARCHAR</tspan></text></svg><svg width="185.37" height="150" x="95" y="356" id="h1881775763" class="t"><rect height="40" width="185.37" class="th"></rect><text x="13" y="25" class="tht">Payments</text><rect height="110" width="185.37" class="t-bg"></rect><text x="13" y="61" class="tf pk">Payment_ID<tspan x="172.37" class="ty">INTEGER</tspan></text><path d="M7,14A2,2 0 0,1 5,12A2,2 0 0,1 7,10A2,2 0 0,1 9,12A2,2 0 0,1 7,14M12.65,10C11.83,7.67 9.61,6 7, 6A6, 6 0 0, 0 1, 12A6, 6 0 0, 0 7, 18C9.61, 18 11.83, 16.33 12.65, 14H17V18H21V14H23V10H12.65Z" class="i pk" transform="translate(99.032109375, 48) scale(0.65)"></path><text x="13" y="86" class="tf fk">Member_ID<tspan x="172.37" class="ty">INTEGER</tspan></text><text x="13" y="111" class="tf">CreditCard_Info<tspan x="172.37" class="ty">INTEGER</tspan></text><text x="13" y="136" class="tf">Billing_Zip<tspan x="172.37" class="ty">INTEGER</tspan></text></svg></g></g><text class="qdbd-link" x="10" y="20">www.quickdatabasediagrams.com</text></svg>